<?xml version="1.0" ?><svg id="Layer_1" style="enable-background:new 0 0 1024 1024;" version="1.1" viewBox="0 0 1024 1024" xml:space="preserve" xmlns="http://www.w3.org/2000/svg" xmlns:xlink="http://www.w3.org/1999/xlink"><g id="XMLID_357_"><polygon id="XMLID_461_" points="742.6,162.9 667.9,288.8 605.9,393.2 452.6,651.4 396.4,746.1 316,881.5 281.6,861.1 356.3,735.3    418.2,630.9 571.5,372.7 627.8,277.9 708.2,142.5  "/><path d="M948.7,503.9c-46-71.8-109.7-131.8-184.1-173.4c-18.9-10.5-38.4-19.9-58.4-27.9l-71.6,120.6   c18.2,25,28.9,55.7,28.9,88.9c0,83.5-68,151.5-151.5,151.5c-6.5,0-13-0.4-19.3-1.2l-54.4,91.6c24.3,3.5,49,5.3,73.7,5.3   c88.5,0,175.8-22.7,252.6-65.6c74.4-41.6,138.1-101.6,184.1-173.4l5.2-8.1L948.7,503.9z" id="XMLID_457_"/><path d="M512,264.9c-88.5,0-175.8,22.7-252.6,65.6C185,372.1,121.3,432.1,75.3,503.9l-5.2,8.1l5.2,8.1   c46,71.9,109.7,131.8,184.1,173.4c18.9,10.6,38.5,19.9,58.5,28L389.5,601c-18.2-25-29-55.8-29-89c0-83.5,68-151.5,151.5-151.5   c6.6,0,13.1,0.4,19.5,1.3l54.4-91.6C561.5,266.6,536.8,264.9,512,264.9z" id="XMLID_458_"/><path d="M509.5,398.9l-30.5,51.4v0c-19,12.3-32,33.1-33.8,56.9c0,0,0,0,0,0l-3.4,5.8h-36.8   C404.9,453.2,450.9,403.8,509.5,398.9z" id="XMLID_453_"/></g><g id="XMLID_1_"/><g id="XMLID_2_"/><g id="XMLID_3_"/><g id="XMLID_4_"/><g id="XMLID_5_"/></svg>